<svg id="visual" viewBox="0 0 900 450" width="900" height="450" xmlns="http://www.w3.org/2000/svg" xmlns:xlink="http://www.w3.org/1999/xlink" version="1.1"><path d="M674 450L684.5 445.7C695 441.3 716 432.7 699.5 423.8C683 415 629 406 605 397.2C581 388.3 587 379.7 602 370.8C617 362 641 353 666.5 344.2C692 335.3 719 326.7 732.5 317.8C746 309 746 300 755 291.2C764 282.3 782 273.7 788 264.8C794 256 788 247 786.5 238.2C785 229.3 788 220.7 795.5 211.8C803 203 815 194 797 185.2C779 176.3 731 167.7 699.5 158.8C668 150 653 141 665 132.2C677 123.3 716 114.7 729.5 105.8C743 97 731 88 740 79.2C749 70.3 779 61.7 768.5 52.8C758 44 707 35 690.5 26.2C674 17.3 692 8.7 701 4.3L710 0L900 0L900 4.3C900 8.7 900 17.3 900 26.2C900 35 900 44 900 52.8C900 61.7 900 70.3 900 79.2C900 88 900 97 900 105.8C900 114.7 900 123.3 900 132.2C900 141 900 150 900 158.8C900 167.7 900 176.3 900 185.2C900 194 900 203 900 211.8C900 220.7 900 229.3 900 238.2C900 247 900 256 900 264.8C900 273.7 900 282.3 900 291.2C900 300 900 309 900 317.8C900 326.7 900 335.3 900 344.2C900 353 900 362 900 370.8C900 379.7 900 388.3 900 397.2C900 406 900 415 900 423.8C900 432.7 900 441.3 900 445.7L900 450Z" fill="#1e3a8a"></path><path d="M620 450L632 445.7C644 441.3 668 432.7 654.5 423.8C641 415 590 406 564.5 397.2C539 388.3 539 379.7 557 370.8C575 362 611 353 642.5 344.2C674 335.3 701 326.7 714.5 317.8C728 309 728 300 737 291.2C746 282.3 764 273.7 770 264.8C776 256 770 247 762.5 238.2C755 229.3 746 220.7 747.5 211.8C749 203 761 194 746 185.2C731 176.3 689 167.7 663.5 158.8C638 150 629 141 645.5 132.2C662 123.3 704 114.7 719 105.8C734 97 722 88 728 79.2C734 70.3 758 61.7 741.5 52.8C725 44 668 35 654.5 26.2C641 17.3 671 8.7 686 4.3L701 0L711 0L702 4.3C693 8.7 675 17.3 691.5 26.2C708 35 759 44 769.5 52.8C780 61.7 750 70.3 741 79.2C732 88 744 97 730.5 105.8C717 114.7 678 123.3 666 132.2C654 141 669 150 700.5 158.8C732 167.7 780 176.3 798 185.2C816 194 804 203 796.5 211.8C789 220.7 786 229.3 787.5 238.2C789 247 795 256 789 264.8C783 273.7 765 282.3 756 291.2C747 300 747 309 733.5 317.8C720 326.7 693 335.3 667.5 344.2C642 353 618 362 603 370.8C588 379.7 582 388.3 606 397.2C630 406 684 415 700.5 423.8C717 432.7 696 441.3 685.5 445.7L675 450Z" fill="#214093"></path><path d="M575 450L588.5 445.7C602 441.3 629 432.7 620 423.8C611 415 566 406 537.5 397.2C509 388.3 497 379.7 512 370.8C527 362 569 353 603.5 344.2C638 335.3 665 326.7 675.5 317.8C686 309 680 300 692 291.2C704 282.3 734 273.7 738.5 264.8C743 256 722 247 713 238.2C704 229.3 707 220.7 713 211.8C719 203 728 194 708.5 185.2C689 176.3 641 167.7 611 158.8C581 150 569 141 584 132.2C599 123.3 641 114.7 660.5 105.8C680 97 677 88 683 79.2C689 70.3 704 61.7 684.5 52.8C665 44 611 35 602 26.2C593 17.3 629 8.7 647 4.3L665 0L702 0L687 4.3C672 8.7 642 17.3 655.5 26.2C669 35 726 44 742.5 52.8C759 61.7 735 70.3 729 79.2C723 88 735 97 720 105.8C705 114.7 663 123.3 646.5 132.2C630 141 639 150 664.5 158.8C690 167.7 732 176.3 747 185.2C762 194 750 203 748.5 211.8C747 220.7 756 229.3 763.5 238.2C771 247 777 256 771 264.8C765 273.7 747 282.3 738 291.2C729 300 729 309 715.5 317.8C702 326.7 675 335.3 643.5 344.2C612 353 576 362 558 370.8C540 379.7 540 388.3 565.5 397.2C591 406 642 415 655.5 423.8C669 432.7 645 441.3 633 445.7L621 450Z" fill="#25469d"></path><path d="M458 450L485 445.7C512 441.3 566 432.7 557 423.8C548 415 476 406 449 397.2C422 388.3 440 379.7 459.5 370.8C479 362 500 353 528.5 344.2C557 335.3 593 326.7 600.5 317.8C608 309 587 300 600.5 291.2C614 282.3 662 273.7 674 264.8C686 256 662 247 647 238.2C632 229.3 626 220.7 638 211.8C650 203 680 194 666.5 185.2C653 176.3 596 167.7 560 158.8C524 150 509 141 527 132.2C545 123.3 596 114.7 620 105.8C644 97 641 88 645.5 79.2C650 70.3 662 61.7 635 52.8C608 44 542 35 527 26.2C512 17.3 548 8.7 566 4.3L584 0L666 0L648 4.3C630 8.7 594 17.3 603 26.2C612 35 666 44 685.5 52.8C705 61.7 690 70.3 684 79.2C678 88 681 97 661.5 105.8C642 114.7 600 123.3 585 132.2C570 141 582 150 612 158.8C642 167.7 690 176.3 709.5 185.2C729 194 720 203 714 211.8C708 220.7 705 229.3 714 238.2C723 247 744 256 739.5 264.8C735 273.7 705 282.3 693 291.2C681 300 687 309 676.5 317.8C666 326.7 639 335.3 604.5 344.2C570 353 528 362 513 370.8C498 379.7 510 388.3 538.5 397.2C567 406 612 415 621 423.8C630 432.7 603 441.3 589.5 445.7L576 450Z" fill="#284da6"></path><path d="M413 450L440 445.7C467 441.3 521 432.7 507.5 423.8C494 415 413 406 384.5 397.2C356 388.3 380 379.7 396.5 370.8C413 362 422 353 456.5 344.2C491 335.3 551 326.7 570.5 317.8C590 309 569 300 570.5 291.2C572 282.3 596 273.7 599 264.8C602 256 584 247 573.5 238.2C563 229.3 560 220.7 576.5 211.8C593 203 629 194 620 185.2C611 176.3 557 167.7 519.5 158.8C482 150 461 141 476 132.2C491 123.3 542 114.7 558.5 105.8C575 97 557 88 564.5 79.2C572 70.3 605 61.7 588.5 52.8C572 44 506 35 488 26.2C470 17.3 500 8.7 515 4.3L530 0L585 0L567 4.3C549 8.7 513 17.3 528 26.2C543 35 609 44 636 52.8C663 61.7 651 70.3 646.5 79.2C642 88 645 97 621 105.8C597 114.7 546 123.3 528 132.2C510 141 525 150 561 158.8C597 167.7 654 176.3 667.5 185.2C681 194 651 203 639 211.8C627 220.7 633 229.3 648 238.2C663 247 687 256 675 264.8C663 273.7 615 282.3 601.5 291.2C588 300 609 309 601.5 317.8C594 326.7 558 335.3 529.5 344.2C501 353 480 362 460.5 370.8C441 379.7 423 388.3 450 397.2C477 406 549 415 558 423.8C567 432.7 513 441.3 486 445.7L459 450Z" fill="#2b53b0"></path><path d="M368 450L393.5 445.7C419 441.3 470 432.7 456.5 423.8C443 415 365 406 336.5 397.2C308 388.3 329 379.7 347 370.8C365 362 380 353 413 344.2C446 335.3 497 326.7 515 317.8C533 309 518 300 524 291.2C530 282.3 557 273.7 564.5 264.8C572 256 560 247 540.5 238.2C521 229.3 494 220.7 503 211.8C512 203 557 194 551 185.2C545 176.3 488 167.7 452 158.8C416 150 401 141 417.5 132.2C434 123.3 482 114.7 500 105.8C518 97 506 88 513.5 79.2C521 70.3 548 61.7 533 52.8C518 44 461 35 440 26.2C419 17.3 434 8.7 441.5 4.3L449 0L531 0L516 4.3C501 8.7 471 17.3 489 26.2C507 35 573 44 589.5 52.8C606 61.7 573 70.3 565.5 79.2C558 88 576 97 559.5 105.8C543 114.7 492 123.3 477 132.2C462 141 483 150 520.5 158.8C558 167.7 612 176.3 621 185.2C630 194 594 203 577.5 211.8C561 220.7 564 229.3 574.5 238.2C585 247 603 256 600 264.8C597 273.7 573 282.3 571.5 291.2C570 300 591 309 571.5 317.8C552 326.7 492 335.3 457.5 344.2C423 353 414 362 397.5 370.8C381 379.7 357 388.3 385.5 397.2C414 406 495 415 508.5 423.8C522 432.7 468 441.3 441 445.7L414 450Z" fill="#2e5aba"></path><path d="M305 450L327.5 445.7C350 441.3 395 432.7 381.5 423.8C368 415 296 406 270.5 397.2C245 388.3 266 379.7 287 370.8C308 362 329 353 350 344.2C371 335.3 392 326.7 389 317.8C386 309 359 300 374 291.2C389 282.3 446 273.7 470 264.8C494 256 485 247 465.5 238.2C446 229.3 416 220.7 410 211.8C404 203 422 194 419 185.2C416 176.3 392 167.7 377 158.8C362 150 356 141 360.5 132.2C365 123.3 380 114.7 387.5 105.8C395 97 395 88 396.5 79.2C398 70.3 401 61.7 380 52.8C359 44 314 35 305 26.2C296 17.3 323 8.7 336.5 4.3L350 0L450 0L442.5 4.3C435 8.7 420 17.3 441 26.2C462 35 519 44 534 52.8C549 61.7 522 70.3 514.5 79.2C507 88 519 97 501 105.8C483 114.7 435 123.3 418.5 132.2C402 141 417 150 453 158.8C489 167.7 546 176.3 552 185.2C558 194 513 203 504 211.8C495 220.7 522 229.3 541.5 238.2C561 247 573 256 565.5 264.8C558 273.7 531 282.3 525 291.2C519 300 534 309 516 317.8C498 326.7 447 335.3 414 344.2C381 353 366 362 348 370.8C330 379.7 309 388.3 337.5 397.2C366 406 444 415 457.5 423.8C471 432.7 420 441.3 394.5 445.7L369 450Z" fill="#3060c4"></path><path d="M287 450L308 445.7C329 441.3 371 432.7 354.5 423.8C338 415 263 406 234.5 397.2C206 388.3 224 379.7 245 370.8C266 362 290 353 309.5 344.2C329 335.3 344 326.7 339.5 317.8C335 309 311 300 324.5 291.2C338 282.3 389 273.7 413 264.8C437 256 434 247 419 238.2C404 229.3 377 220.7 374 211.8C371 203 392 194 389 185.2C386 176.3 359 167.7 345.5 158.8C332 150 332 141 333.5 132.2C335 123.3 338 114.7 344 105.8C350 97 359 88 366.5 79.2C374 70.3 380 61.7 359 52.8C338 44 290 35 281 26.2C272 17.3 302 8.7 317 4.3L332 0L351 0L337.5 4.3C324 8.7 297 17.3 306 26.2C315 35 360 44 381 52.8C402 61.7 399 70.3 397.5 79.2C396 88 396 97 388.5 105.8C381 114.7 366 123.3 361.5 132.2C357 141 363 150 378 158.8C393 167.7 417 176.3 420 185.2C423 194 405 203 411 211.8C417 220.7 447 229.3 466.5 238.2C486 247 495 256 471 264.8C447 273.7 390 282.3 375 291.2C360 300 387 309 390 317.8C393 326.7 372 335.3 351 344.2C330 353 309 362 288 370.8C267 379.7 246 388.3 271.5 397.2C297 406 369 415 382.5 423.8C396 432.7 351 441.3 328.5 445.7L306 450Z" fill="#3367ce"></path><path d="M170 450L195.5 445.7C221 441.3 272 432.7 269 423.8C266 415 209 406 183.5 397.2C158 388.3 164 379.7 177.5 370.8C191 362 212 353 224 344.2C236 335.3 239 326.7 240.5 317.8C242 309 242 300 257 291.2C272 282.3 302 273.7 318.5 264.8C335 256 338 247 320 238.2C302 229.3 263 220.7 255.5 211.8C248 203 272 194 284 185.2C296 176.3 296 167.7 279.5 158.8C263 150 230 141 227 132.2C224 123.3 251 114.7 273.5 105.8C296 97 314 88 324.5 79.2C335 70.3 338 61.7 309.5 52.8C281 44 221 35 212 26.2C203 17.3 245 8.7 266 4.3L287 0L333 0L318 4.3C303 8.7 273 17.3 282 26.2C291 35 339 44 360 52.8C381 61.7 375 70.3 367.5 79.2C360 88 351 97 345 105.8C339 114.7 336 123.3 334.5 132.2C333 141 333 150 346.5 158.8C360 167.7 387 176.3 390 185.2C393 194 372 203 375 211.8C378 220.7 405 229.3 420 238.2C435 247 438 256 414 264.8C390 273.7 339 282.3 325.5 291.2C312 300 336 309 340.5 317.8C345 326.7 330 335.3 310.5 344.2C291 353 267 362 246 370.8C225 379.7 207 388.3 235.5 397.2C264 406 339 415 355.5 423.8C372 432.7 330 441.3 309 445.7L288 450Z" fill="#356dd8"></path><path d="M161 450L183.5 445.7C206 441.3 251 432.7 246.5 423.8C242 415 188 406 165.5 397.2C143 388.3 152 379.7 159.5 370.8C167 362 173 353 177.5 344.2C182 335.3 185 326.7 189.5 317.8C194 309 200 300 216.5 291.2C233 282.3 260 273.7 273.5 264.8C287 256 287 247 275 238.2C263 229.3 239 220.7 237.5 211.8C236 203 257 194 263 185.2C269 176.3 260 167.7 243.5 158.8C227 150 203 141 203 132.2C203 123.3 227 114.7 249.5 105.8C272 97 293 88 299 79.2C305 70.3 296 61.7 264.5 52.8C233 44 179 35 174.5 26.2C170 17.3 215 8.7 237.5 4.3L260 0L288 0L267 4.3C246 8.7 204 17.3 213 26.2C222 35 282 44 310.5 52.8C339 61.7 336 70.3 325.5 79.2C315 88 297 97 274.5 105.8C252 114.7 225 123.3 228 132.2C231 141 264 150 280.5 158.8C297 167.7 297 176.3 285 185.2C273 194 249 203 256.5 211.8C264 220.7 303 229.3 321 238.2C339 247 336 256 319.5 264.8C303 273.7 273 282.3 258 291.2C243 300 243 309 241.5 317.8C240 326.7 237 335.3 225 344.2C213 353 192 362 178.5 370.8C165 379.7 159 388.3 184.5 397.2C210 406 267 415 270 423.8C273 432.7 222 441.3 196.5 445.7L171 450Z" fill="#3774e2"></path><path d="M107 450L126.5 445.7C146 441.3 185 432.7 186.5 423.8C188 415 152 406 129.5 397.2C107 388.3 98 379.7 104 370.8C110 362 131 353 144.5 344.2C158 335.3 164 326.7 165.5 317.8C167 309 164 300 173 291.2C182 282.3 203 273.7 219.5 264.8C236 256 248 247 243.5 238.2C239 229.3 218 220.7 209 211.8C200 203 203 194 200 185.2C197 176.3 188 167.7 176 158.8C164 150 149 141 158 132.2C167 123.3 200 114.7 227 105.8C254 97 275 88 281 79.2C287 70.3 278 61.7 246.5 52.8C215 44 161 35 147.5 26.2C134 17.3 161 8.7 174.5 4.3L188 0L261 0L238.5 4.3C216 8.7 171 17.3 175.5 26.2C180 35 234 44 265.5 52.8C297 61.7 306 70.3 300 79.2C294 88 273 97 250.5 105.8C228 114.7 204 123.3 204 132.2C204 141 228 150 244.5 158.8C261 167.7 270 176.3 264 185.2C258 194 237 203 238.5 211.8C240 220.7 264 229.3 276 238.2C288 247 288 256 274.5 264.8C261 273.7 234 282.3 217.5 291.2C201 300 195 309 190.5 317.8C186 326.7 183 335.3 178.5 344.2C174 353 168 362 160.5 370.8C153 379.7 144 388.3 166.5 397.2C189 406 243 415 247.5 423.8C252 432.7 207 441.3 184.5 445.7L162 450Z" fill="#397bec"></path><path d="M0 450L0 445.7C0 441.3 0 432.7 0 423.8C0 415 0 406 0 397.2C0 388.3 0 379.7 0 370.8C0 362 0 353 0 344.2C0 335.3 0 326.7 0 317.8C0 309 0 300 0 291.2C0 282.3 0 273.7 0 264.8C0 256 0 247 0 238.2C0 229.3 0 220.7 0 211.8C0 203 0 194 0 185.2C0 176.3 0 167.7 0 158.8C0 150 0 141 0 132.2C0 123.3 0 114.7 0 105.8C0 97 0 88 0 79.2C0 70.3 0 61.7 0 52.8C0 44 0 35 0 26.2C0 17.3 0 8.7 0 4.3L0 0L189 0L175.5 4.3C162 8.7 135 17.3 148.5 26.2C162 35 216 44 247.5 52.8C279 61.7 288 70.3 282 79.2C276 88 255 97 228 105.8C201 114.7 168 123.3 159 132.2C150 141 165 150 177 158.8C189 167.7 198 176.3 201 185.2C204 194 201 203 210 211.8C219 220.7 240 229.3 244.5 238.2C249 247 237 256 220.5 264.8C204 273.7 183 282.3 174 291.2C165 300 168 309 166.5 317.8C165 326.7 159 335.3 145.5 344.2C132 353 111 362 105 370.8C99 379.7 108 388.3 130.5 397.2C153 406 189 415 187.5 423.8C186 432.7 147 441.3 127.5 445.7L108 450Z" fill="#3b82f6"></path></svg>